<svg id="svg" xmlns="http://www.w3.org/2000/svg" xmlns:xlink="http://www.w3.org/1999/xlink" width="400" height="194.0029985007496" viewBox="0, 0, 400,194.0029985007496"><g id="svgg"><path id="path0" d="M49.475 6.615 C 49.228 6.770,48.654 7.028,48.201 7.189 C 47.132 7.568,47.156 8.250,48.276 9.295 L 49.175 10.136 49.175 14.073 C 49.175 16.894,49.048 18.315,48.726 19.087 C 48.478 19.679,48.276 20.760,48.276 21.489 C 48.276 23.992,47.404 26.639,46.285 27.532 C 45.148 28.439,45.070 28.789,45.766 29.852 C 46.214 30.536,46.215 30.700,45.776 31.865 C 45.513 32.563,45.213 33.741,45.109 34.483 C 45.006 35.225,44.331 37.991,43.610 40.630 C 41.667 47.736,40.428 53.107,40.618 53.601 C 40.710 53.842,40.456 55.069,40.053 56.329 C 39.650 57.590,38.903 60.002,38.393 61.689 C 37.501 64.643,37.383 64.847,35.225 67.155 C 33.651 68.838,32.984 69.779,32.984 70.315 C 32.984 71.673,34.814 75.589,35.585 75.882 C 36.875 76.373,36.288 78.014,34.628 78.562 C 33.863 78.815,33.294 79.341,32.576 80.460 C 32.030 81.312,31.359 82.194,31.084 82.421 C 30.399 82.985,30.456 83.459,31.334 84.503 C 31.747 84.993,32.084 85.553,32.084 85.748 C 32.084 86.858,28.281 98.412,26.998 101.199 C 24.605 106.399,24.508 106.559,23.418 107.073 C 21.948 107.766,21.589 108.422,21.589 110.412 C 21.589 112.844,21.031 113.966,19.090 115.431 C 16.264 117.565,15.968 118.423,17.428 120.241 L 18.365 121.406 18.211 126.895 C 18.101 130.808,17.865 133.374,17.388 135.832 C 16.542 140.188,16.669 150.161,17.583 151.171 C 18.354 152.022,17.978 162.581,17.117 164.268 C 16.794 164.902,16.541 165.829,16.555 166.329 C 16.569 166.829,16.358 167.555,16.086 167.943 C 15.441 168.865,15.463 169.486,16.192 170.915 C 17.276 173.039,16.945 174.825,14.999 177.361 C 13.629 179.146,13.124 180.820,13.384 182.716 L 13.575 184.108 43.541 184.108 L 73.507 184.108 73.265 176.987 C 72.840 164.462,72.952 159.397,73.709 157.015 C 74.069 155.884,74.363 154.613,74.363 154.190 C 74.363 153.767,74.566 153.196,74.815 152.921 C 75.411 152.262,75.500 144.554,74.965 139.808 C 74.757 137.955,74.650 135.767,74.729 134.946 C 74.819 134.014,74.749 133.402,74.543 133.316 C 74.306 133.218,74.305 133.110,74.539 132.931 C 74.906 132.653,75.562 130.239,75.562 129.169 C 75.562 128.767,75.945 128.134,76.462 127.680 C 77.583 126.696,77.581 126.625,76.364 124.846 C 75.815 124.044,74.846 122.444,74.211 121.289 C 73.576 120.135,72.426 118.448,71.657 117.541 C 70.888 116.634,70.050 115.555,69.795 115.142 C 69.238 114.241,67.311 103.884,66.699 98.501 C 66.586 97.511,66.234 95.352,65.916 93.703 C 65.598 92.054,65.139 89.085,64.897 87.106 C 63.990 79.686,63.979 80.276,65.054 78.093 C 66.211 75.743,66.158 75.395,64.287 73.005 C 62.521 70.748,61.872 69.290,61.623 67.016 C 61.515 66.027,61.155 63.666,60.824 61.769 C 60.492 59.873,59.838 55.757,59.370 52.624 C 58.903 49.490,58.086 44.054,57.555 40.543 L 56.590 34.159 57.231 33.477 C 58.154 32.494,58.024 31.908,56.747 31.284 L 55.622 30.735 55.607 23.688 C 55.586 14.239,55.589 14.262,54.332 14.590 C 53.718 14.751,53.678 14.888,53.856 16.228 C 54.087 17.969,53.430 18.226,51.966 16.968 C 51.159 16.275,51.120 16.115,51.024 13.126 L 50.923 10.006 52.148 9.525 C 53.644 8.937,53.662 8.704,52.314 7.356 C 51.258 6.301,50.352 6.064,49.475 6.615 M49.042 26.920 C 48.655 27.307,48.561 26.655,48.786 25.147 L 49.025 23.538 49.117 25.146 C 49.168 26.030,49.134 26.828,49.042 26.920 M48.963 32.479 C 49.046 32.696,48.993 39.455,48.846 47.499 C 48.619 59.822,48.644 62.415,49.006 63.971 C 49.242 64.986,49.324 65.930,49.189 66.068 C 49.000 66.261,40.165 68.772,35.157 70.057 C 34.136 70.319,34.321 69.631,35.607 68.378 C 38.392 65.665,39.475 64.084,39.697 62.406 C 39.815 61.520,40.234 59.804,40.629 58.594 C 41.024 57.384,41.441 55.546,41.555 54.509 C 41.670 53.472,42.148 51.342,42.618 49.775 C 43.087 48.208,43.473 46.681,43.475 46.380 C 43.477 46.080,43.681 45.632,43.928 45.384 C 44.208 45.105,44.378 44.369,44.378 43.439 C 44.378 42.130,45.269 37.554,46.191 34.130 C 46.593 32.636,48.571 31.458,48.963 32.479 M291.983 59.179 C 282.341 62.665,276.814 71.394,269.933 94.003 L 267.560 101.799 253.270 101.877 C 244.329 101.926,238.981 101.848,238.981 101.668 C 238.981 100.964,245.701 80.688,246.277 79.656 C 247.158 78.075,248.250 77.591,251.400 77.386 L 254.075 77.211 254.502 75.927 C 255.211 73.795,255.889 73.910,242.848 73.939 L 231.046 73.964 230.662 75.288 C 230.105 77.213,230.249 77.361,232.684 77.361 C 235.897 77.361,237.481 78.254,237.481 80.065 C 237.481 80.893,222.904 125.696,222.117 127.286 C 220.779 129.990,219.182 131.034,216.387 131.034 L 214.453 131.034 214.089 132.550 C 213.600 134.587,212.727 134.441,225.522 134.463 C 238.232 134.485,237.353 134.638,237.536 132.366 L 237.631 131.184 234.568 131.034 C 229.341 130.779,229.349 131.015,234.052 116.320 L 237.595 105.247 252.065 105.247 L 266.536 105.247 266.256 106.072 C 266.102 106.525,264.694 110.995,263.127 116.005 C 258.680 130.226,258.131 131.034,252.924 131.034 C 250.408 131.034,250.385 131.053,250.287 133.141 L 250.225 134.445 262.151 134.464 L 274.076 134.483 274.368 133.433 C 275.019 131.089,274.967 131.034,272.100 131.034 C 268.823 131.034,268.066 130.466,268.066 128.004 C 268.066 126.533,282.762 76.355,284.704 71.194 C 287.394 64.049,291.404 61.372,294.674 64.538 C 296.982 66.773,300.895 65.650,301.467 62.590 C 302.128 59.050,297.221 57.285,291.983 59.179 M58.171 62.034 C 58.171 62.873,55.305 68.598,55.025 68.318 C 54.724 68.017,56.637 62.564,57.191 62.144 C 57.770 61.705,58.171 61.660,58.171 62.034 M97.764 72.164 C 97.369 73.126,95.720 76.805,94.100 80.339 C 90.725 87.703,90.892 87.105,92.039 87.698 C 93.454 88.430,93.682 88.295,95.682 85.542 C 96.727 84.104,98.868 81.601,100.440 79.980 L 103.298 77.031 106.127 76.459 C 109.117 75.854,117.654 75.146,119.952 75.313 L 121.313 75.412 113.787 98.951 C 103.798 130.192,104.560 128.764,97.649 129.158 C 94.461 129.339,94.506 129.309,94.384 131.292 L 94.303 132.598 108.035 132.602 C 115.587 132.605,121.847 132.526,121.946 132.427 C 122.045 132.328,122.189 131.587,122.267 130.781 L 122.407 129.315 119.150 129.168 C 114.276 128.949,113.412 128.304,113.733 125.127 C 113.884 123.634,128.893 75.804,129.356 75.341 C 129.913 74.784,145.534 76.423,147.501 77.244 C 149.804 78.207,150.252 76.780,138.638 105.499 C 132.925 119.626,128.186 131.493,128.106 131.870 C 127.962 132.553,127.977 132.556,130.916 132.470 L 133.870 132.384 136.290 126.537 C 141.550 113.828,148.644 104.588,156.005 100.858 C 161.934 97.853,162.881 105.174,158.325 118.802 C 154.953 128.887,151.139 133.643,149.758 129.485 C 148.530 125.786,144.357 126.013,143.328 129.835 C 142.143 134.239,146.885 136.748,151.850 134.344 C 160.179 130.312,169.784 108.662,167.195 99.755 C 164.625 90.914,153.149 94.666,144.554 107.158 C 143.432 108.788,143.160 108.925,143.732 107.571 C 143.958 107.035,147.221 99.379,150.983 90.558 C 160.080 69.226,160.048 69.605,152.624 71.386 C 147.030 72.727,108.199 72.568,102.099 71.179 C 98.186 70.288,98.570 70.201,97.764 72.164 M46.777 77.048 C 44.781 77.685,42.489 78.073,43.225 77.649 C 43.953 77.230,46.809 76.500,47.676 76.511 C 48.153 76.518,47.825 76.713,46.777 77.048 M40.787 78.427 C 39.884 78.646,39.094 78.774,39.030 78.710 C 38.851 78.532,40.839 78.014,41.679 78.021 C 42.091 78.025,41.690 78.207,40.787 78.427 M48.123 95.494 C 48.048 105.992,47.903 111.420,47.686 111.825 C 47.300 112.546,44.431 113.463,43.149 113.275 C 41.565 113.043,41.463 113.439,41.135 121.097 C 40.970 124.949,40.712 128.224,40.560 128.375 C 40.058 128.877,33.500 130.362,28.923 131.010 C 22.975 131.851,21.289 132.329,21.289 133.170 C 21.289 133.709,23.753 133.388,31.634 131.821 C 39.753 130.207,40.480 130.134,40.480 130.927 C 40.480 131.258,40.347 131.285,39.900 131.045 C 38.900 130.510,37.861 130.688,37.220 131.504 C 36.719 132.140,36.512 132.217,36.018 131.953 C 35.081 131.452,34.257 131.576,33.754 132.295 C 33.324 132.909,33.213 132.929,32.210 132.566 C 31.189 132.197,31.082 132.220,30.288 132.981 C 29.589 133.650,29.343 133.731,28.836 133.460 C 27.849 132.932,27.090 133.081,26.548 133.908 C 26.080 134.623,25.999 134.646,25.515 134.208 C 24.773 133.537,23.479 133.603,23.088 134.333 C 22.842 134.794,22.461 134.933,21.439 134.933 C 20.234 134.933,19.490 135.427,19.490 136.227 C 19.490 136.669,23.471 136.698,25.487 136.271 C 26.724 136.009,28.478 135.718,29.385 135.623 C 30.292 135.529,31.301 135.268,31.626 135.042 C 31.951 134.817,32.626 134.633,33.125 134.633 C 33.624 134.633,35.091 134.430,36.383 134.183 C 37.676 133.936,39.255 133.733,39.892 133.733 C 42.469 133.733,43.596 132.414,43.927 129.010 C 44.167 126.545,44.670 126.202,46.039 127.571 C 46.657 128.189,46.726 128.429,46.475 129.090 C 46.311 129.521,46.177 130.279,46.177 130.774 C 46.177 132.020,45.756 132.687,44.689 133.129 C 43.525 133.611,43.519 134.296,44.678 134.528 C 46.363 134.865,45.835 136.741,43.926 137.199 C 43.433 137.317,42.759 137.555,42.429 137.728 C 42.099 137.900,41.334 138.007,40.728 137.965 C 39.420 137.874,23.005 141.099,21.814 141.680 C 21.061 142.048,20.990 142.033,20.990 141.506 C 20.990 140.766,19.161 140.692,18.567 141.408 C 17.719 142.430,17.408 139.635,18.111 137.317 C 18.339 136.568,18.768 133.566,19.064 130.648 C 19.528 126.068,19.676 125.319,20.145 125.170 C 20.444 125.075,20.771 124.666,20.873 124.261 C 20.975 123.856,21.336 123.330,21.676 123.091 C 22.142 122.765,22.354 122.161,22.537 120.636 C 22.829 118.212,22.638 117.916,21.074 118.367 C 20.450 118.547,19.423 118.604,18.791 118.493 L 17.642 118.291 19.990 116.012 C 22.268 113.802,22.402 113.722,24.438 113.360 C 25.592 113.154,28.291 112.582,30.435 112.089 C 32.579 111.595,36.048 110.893,38.145 110.528 L 41.957 109.864 42.141 110.779 C 42.636 113.256,42.837 113.285,45.103 111.214 C 46.968 109.510,47.176 108.769,45.952 108.185 C 45.214 107.832,45.112 107.597,44.978 105.934 C 44.754 103.165,44.577 103.107,41.314 104.740 C 39.783 105.506,37.929 106.343,37.194 106.599 C 36.458 106.855,35.739 107.229,35.595 107.430 C 35.443 107.643,35.406 106.805,35.508 105.427 C 35.604 104.124,35.682 102.640,35.683 102.129 C 35.683 101.432,35.885 101.086,36.489 100.748 L 37.295 100.297 38.363 102.397 C 39.530 104.693,39.888 104.903,41.500 104.230 L 42.579 103.779 42.600 101.590 C 42.626 98.854,42.780 98.470,44.244 97.478 C 45.811 96.418,46.035 95.052,44.770 94.266 C 44.307 93.978,43.643 93.492,43.295 93.185 C 42.518 92.500,41.333 92.907,40.819 94.036 C 40.398 94.961,39.276 94.978,38.227 94.075 C 37.560 93.502,37.325 92.823,36.696 89.657 C 35.828 85.290,35.893 84.811,37.487 83.805 C 38.205 83.351,38.681 82.821,38.681 82.473 C 38.681 82.155,38.814 81.812,38.976 81.712 C 39.448 81.421,47.805 79.517,48.031 79.650 C 48.143 79.716,48.185 86.846,48.123 95.494 M34.933 80.660 C 34.933 81.388,34.806 81.559,34.268 81.559 C 33.198 81.559,32.828 82.616,33.568 83.557 C 34.609 84.880,34.253 88.456,33.081 88.456 C 32.679 88.456,32.644 88.376,32.924 88.096 C 33.579 87.441,33.383 84.062,32.660 83.556 C 32.042 83.122,32.045 83.108,33.153 81.440 C 34.401 79.559,34.933 79.326,34.933 80.660 M36.973 81.601 C 36.540 82.034,36.153 82.172,35.782 82.026 C 35.305 81.839,35.352 81.757,36.132 81.409 C 37.450 80.822,37.696 80.878,36.973 81.601 M32.684 90.385 C 32.684 90.672,31.093 94.161,31.003 94.072 C 30.880 93.949,31.649 91.016,31.918 90.581 C 32.112 90.266,32.684 90.120,32.684 90.385 M35.140 94.821 C 36.901 97.972,37.151 99.789,35.832 99.856 C 35.667 99.864,34.284 100.048,32.759 100.263 C 29.672 100.700,29.483 100.668,31.109 99.988 L 32.234 99.517 31.580 99.009 C 30.982 98.544,30.961 98.425,31.331 97.601 C 31.671 96.845,31.739 96.804,31.760 97.340 C 31.817 98.846,33.994 99.057,34.362 97.593 C 34.600 96.645,34.048 95.959,33.022 95.928 C 32.242 95.903,32.244 95.899,33.185 95.486 C 34.470 94.924,34.604 94.604,33.724 94.203 C 32.843 93.802,32.823 93.612,33.508 92.170 L 34.033 91.066 34.194 92.241 C 34.283 92.888,34.708 94.048,35.140 94.821 M191.084 95.778 C 181.241 99.435,172.023 113.120,171.981 124.138 C 171.951 131.960,175.787 134.943,183.346 132.974 C 188.238 131.700,196.233 124.874,194.751 123.236 C 193.633 122.001,193.164 122.146,191.151 124.352 C 183.246 133.013,175.764 128.443,178.773 116.792 L 179.160 115.294 180.960 115.070 C 192.202 113.672,200.337 107.414,200.426 100.098 C 200.479 95.639,196.461 93.781,191.084 95.778 M298.624 97.268 C 285.358 101.086,276.742 124.679,285.643 132.814 C 295.373 141.707,312.833 124.535,312.090 106.802 C 311.773 99.216,306.017 95.141,298.624 97.268 M324.288 97.347 C 321.962 98.566,319.168 102.015,316.982 106.365 C 315.538 109.239,315.467 109.823,316.506 110.297 C 317.685 110.834,317.731 110.797,319.053 108.256 C 321.294 103.949,323.373 102.185,324.101 103.973 C 325.075 106.370,327.733 134.898,327.341 138.750 C 326.846 143.609,319.190 152.942,314.107 154.883 L 312.769 155.394 311.388 154.534 C 307.757 152.272,306.730 152.167,304.800 153.861 C 302.344 156.018,303.577 159.806,307.034 160.722 C 315.079 162.854,329.034 148.487,340.921 125.836 C 350.589 107.412,352.262 96.415,345.321 96.917 C 342.249 97.139,341.318 99.270,342.729 102.849 C 344.799 108.100,341.740 118.150,333.935 131.737 L 332.929 133.489 332.727 128.739 C 332.188 116.094,331.006 103.111,330.119 100.095 C 329.213 97.013,326.955 95.949,324.288 97.347 M373.763 97.273 C 357.298 102.502,342.590 137.390,357.812 135.107 C 361.819 134.506,369.563 128.380,374.043 122.267 C 375.932 119.688,375.935 119.704,374.340 124.148 C 371.591 131.809,371.141 133.902,372.063 134.736 C 373.924 136.420,379.835 133.691,384.987 128.769 C 387.661 126.213,387.974 125.640,387.274 124.573 C 386.586 123.522,386.236 123.635,384.398 125.504 C 380.984 128.973,378.711 130.267,378.711 128.740 C 378.711 127.781,384.650 110.532,387.109 104.348 C 390.407 96.057,390.349 96.805,387.683 96.913 C 385.499 97.001,385.479 97.009,384.548 98.231 L 383.612 99.461 382.539 98.478 C 380.802 96.887,376.736 96.328,373.763 97.273 M59.969 101.660 C 59.782 103.020,59.667 104.733,59.712 105.468 C 59.774 106.474,59.668 106.874,59.282 107.090 C 58.636 107.452,58.632 107.188,59.225 103.448 C 60.040 98.304,60.618 96.915,59.969 101.660 M193.328 99.711 C 195.647 101.335,194.365 105.721,190.815 108.307 C 186.973 111.105,179.514 113.525,180.187 111.754 C 183.242 103.719,190.090 97.443,193.328 99.711 M378.104 100.688 C 382.678 104.037,378.967 113.297,368.770 123.977 C 359.811 133.360,356.070 131.751,359.732 120.090 C 363.692 107.479,373.390 97.238,378.104 100.688 M306.235 101.856 C 313.407 105.470,299.476 130.388,290.205 130.527 C 285.338 130.601,284.756 124.823,288.779 116.368 C 293.891 105.624,301.372 99.405,306.235 101.856 M33.189 105.014 C 33.130 108.596,33.311 108.992,34.725 108.375 C 35.004 108.253,35.470 108.183,35.760 108.219 C 36.442 108.304,41.071 107.365,41.754 107.003 C 42.563 106.575,42.426 107.539,41.604 108.058 C 40.281 108.892,36.382 109.600,35.552 109.156 C 34.653 108.675,32.084 109.251,32.084 109.934 C 32.084 110.160,31.949 110.345,31.784 110.345 C 31.619 110.345,31.518 110.179,31.559 109.977 C 31.687 109.352,30.261 109.322,30.098 109.946 C 29.979 110.399,29.647 110.495,28.195 110.495 L 26.435 110.495 27.311 109.941 C 28.222 109.364,28.456 108.849,27.811 108.841 C 26.777 108.828,26.622 108.350,27.252 107.115 C 27.592 106.448,27.959 105.346,28.068 104.666 C 28.269 103.411,29.298 102.249,30.210 102.249 C 30.583 102.249,30.615 102.575,30.410 104.273 C 29.981 107.821,30.048 108.683,30.761 108.785 C 31.781 108.931,32.111 108.150,32.277 105.195 C 32.556 100.213,33.270 100.072,33.189 105.014 M24.974 108.246 C 24.807 108.885,24.499 108.952,23.538 108.557 C 22.919 108.302,22.923 108.299,24.288 107.844 C 25.061 107.586,25.136 107.629,24.974 108.246 M61.171 112.592 C 60.783 113.005,60.382 113.343,60.281 113.343 C 59.933 113.343,60.120 111.694,60.495 111.454 C 60.701 111.322,60.878 110.918,60.889 110.555 C 60.905 109.994,60.980 110.040,61.392 110.868 C 61.859 111.805,61.850 111.869,61.171 112.592 M35.232 112.942 C 33.913 113.175,31.593 113.574,30.076 113.829 C 28.559 114.084,27.161 114.482,26.969 114.714 C 26.480 115.302,26.841 116.042,27.617 116.042 C 28.229 116.042,28.219 116.080,27.440 116.692 C 26.382 117.524,25.787 118.960,25.787 120.680 C 25.787 122.052,26.184 122.422,26.893 121.713 C 27.127 121.478,27.275 121.478,27.420 121.713 C 27.777 122.290,29.085 122.104,29.085 121.476 C 29.085 120.786,28.567 120.331,27.625 120.194 L 26.914 120.090 27.504 119.364 L 28.095 118.638 28.301 119.459 C 28.441 120.018,28.671 120.248,29.021 120.182 C 29.688 120.055,29.951 116.415,29.326 115.966 C 29.060 115.775,29.127 115.755,29.535 115.902 C 30.943 116.411,31.484 116.386,32.261 115.775 C 34.074 114.348,34.394 115.060,32.707 116.768 C 29.820 119.691,31.489 120.422,34.497 117.551 C 36.363 115.770,36.882 115.571,36.882 116.638 C 36.882 117.248,36.195 117.850,34.067 119.108 C 31.575 120.581,32.545 121.945,35.331 120.887 C 36.778 120.337,36.827 120.336,36.497 120.863 C 36.216 121.314,36.280 121.548,36.847 122.152 C 37.393 122.734,37.497 123.084,37.337 123.814 C 37.079 124.988,36.626 124.993,36.185 123.825 C 35.755 122.686,34.396 122.643,34.237 123.763 C 34.126 124.547,33.949 124.582,33.151 123.978 C 32.274 123.315,30.885 123.399,30.885 124.116 C 30.885 124.996,32.355 126.009,33.407 125.855 L 34.289 125.725 33.575 126.304 C 33.080 126.705,32.625 126.823,32.097 126.688 C 29.951 126.141,29.548 126.175,28.808 126.962 C 27.840 127.993,26.602 127.998,26.135 126.972 C 25.658 125.926,25.699 124.869,26.237 124.331 C 27.148 123.420,26.811 122.592,25.572 122.696 L 24.458 122.789 23.911 125.187 C 22.860 129.799,23.419 131.079,26.034 130.047 C 26.640 129.808,27.946 129.522,28.936 129.412 C 33.167 128.939,38.859 127.947,39.203 127.622 C 39.759 127.097,40.329 113.023,39.807 112.692 C 39.300 112.371,38.100 112.436,35.232 112.942 M46.777 116.624 C 46.777 116.779,46.635 116.994,46.462 117.100 C 46.022 117.372,45.200 117.010,45.426 116.644 C 45.662 116.262,46.777 116.246,46.777 116.624 M30.121 120.369 C 29.485 121.339,29.748 122.639,30.580 122.639 C 31.305 122.639,31.851 121.670,31.728 120.602 C 31.603 119.524,30.755 119.401,30.121 120.369 M20.390 122.152 C 20.390 122.214,20.187 122.433,19.940 122.639 C 19.572 122.944,19.490 122.924,19.490 122.525 C 19.490 122.258,19.693 122.039,19.940 122.039 C 20.187 122.039,20.390 122.090,20.390 122.152 M27.337 124.120 C 26.135 125.616,26.106 126.237,27.240 126.237 C 28.311 126.237,29.060 125.428,29.287 124.025 C 29.535 122.502,28.601 122.548,27.337 124.120 M45.483 123.863 C 46.261 124.642,45.036 126.008,44.190 125.306 C 43.683 124.885,43.664 124.372,44.138 123.898 C 44.585 123.451,45.058 123.439,45.483 123.863 M43.503 140.196 C 44.495 140.079,44.639 140.106,44.078 140.305 C 42.746 140.776,41.679 140.687,41.684 140.105 C 41.687 139.717,41.752 139.681,41.933 139.967 C 42.100 140.229,42.603 140.303,43.503 140.196 M336.568 144.064 C 335.257 145.375,335.611 146.981,337.702 149.216 C 338.700 150.283,338.725 151.279,337.767 151.911 C 336.776 152.565,335.832 151.722,335.832 150.183 C 335.832 148.717,335.291 148.747,334.775 150.242 C 333.983 152.537,333.972 152.624,334.463 152.624 C 334.721 152.624,334.933 152.481,334.933 152.307 C 334.933 152.129,335.225 152.195,335.599 152.457 C 338.555 154.527,341.200 150.671,338.724 147.902 C 337.271 146.277,336.943 145.553,337.331 144.828 C 337.961 143.651,339.730 144.585,339.730 146.094 C 339.730 147.166,340.290 146.588,340.583 145.212 C 340.916 143.650,340.783 143.128,340.180 143.628 C 339.906 143.856,339.724 143.860,339.589 143.643 C 339.211 143.031,337.341 143.292,336.568 144.064 M44.396 144.520 C 45.083 144.236,45.396 144.227,45.654 144.484 C 45.911 144.742,45.825 144.828,45.305 144.828 C 44.814 144.828,44.663 144.958,44.786 145.277 C 44.903 145.582,44.771 145.727,44.374 145.727 C 42.697 145.727,40.643 147.206,41.754 147.614 C 42.054 147.724,42.054 147.831,41.754 148.148 C 41.213 148.722,41.292 149.025,41.982 149.025 C 42.500 149.025,42.534 149.105,42.224 149.601 C 41.485 150.785,43.443 151.717,44.484 150.676 C 44.930 150.230,46.261 149.625,46.796 149.625 C 47.113 149.625,47.158 150.638,46.887 151.649 C 46.751 152.159,46.478 152.329,45.767 152.347 C 43.133 152.411,41.064 153.823,43.604 153.823 C 44.972 153.823,44.979 153.829,44.904 154.798 C 44.832 155.720,44.878 155.768,45.774 155.700 L 46.720 155.628 46.553 159.298 C 46.441 161.769,46.243 163.189,45.947 163.644 C 45.705 164.015,45.580 164.597,45.669 164.936 C 45.857 165.655,45.121 166.081,44.598 165.557 C 44.126 165.086,43.182 165.133,41.642 165.705 C 40.871 165.991,39.562 166.172,38.470 166.145 C 37.372 166.117,36.158 166.286,35.509 166.557 C 34.904 166.810,33.645 167.016,32.710 167.016 C 31.639 167.016,30.603 167.225,29.905 167.580 C 28.974 168.055,28.745 168.079,28.456 167.730 C 27.978 167.154,27.392 167.211,25.807 167.985 C 24.797 168.479,23.880 168.658,22.312 168.669 C 20.896 168.679,19.943 168.843,19.459 169.160 C 19.059 169.422,18.276 169.737,17.718 169.859 L 16.704 170.082 16.890 168.918 C 16.993 168.279,17.361 166.948,17.709 165.962 C 18.504 163.709,18.820 161.781,19.111 157.422 L 19.340 153.975 21.589 153.591 C 24.054 153.169,27.133 150.822,25.537 150.581 C 25.030 150.504,24.964 150.367,25.174 149.831 C 25.315 149.470,25.576 148.800,25.755 148.341 C 26.067 147.538,26.106 147.525,26.806 147.984 C 27.729 148.588,31.041 148.053,31.837 147.171 C 32.326 146.629,32.354 146.632,32.797 147.264 L 33.252 147.915 34.328 146.971 C 35.321 146.099,35.568 146.027,37.567 146.026 C 39.797 146.025,41.486 145.381,41.867 144.387 C 42.012 144.010,42.133 144.015,42.758 144.425 C 43.369 144.825,43.625 144.840,44.396 144.520 M342.895 144.201 C 342.569 144.729,343.099 145.460,343.741 145.368 C 344.731 145.227,344.799 143.928,343.817 143.928 C 343.403 143.928,342.988 144.051,342.895 144.201 M366.792 144.758 C 364.641 145.842,364.628 146.771,366.775 145.885 C 367.220 145.702,367.189 145.985,366.523 148.154 C 365.323 152.059,365.343 152.024,364.325 152.024 C 363.719 152.024,363.418 152.173,363.418 152.474 C 363.418 152.836,363.885 152.924,365.817 152.924 C 367.749 152.924,368.216 152.836,368.216 152.474 C 368.216 152.194,367.933 152.024,367.466 152.024 C 367.054 152.024,366.717 151.989,366.717 151.946 C 366.717 151.904,367.256 150.201,367.916 148.163 C 369.505 143.255,369.543 143.371,366.792 144.758 M372.779 144.396 C 370.606 145.918,370.792 149.625,373.041 149.625 C 374.258 149.625,373.814 150.460,371.978 151.624 C 369.913 152.932,370.432 153.494,372.651 152.350 C 376.874 150.173,378.232 143.928,374.481 143.928 C 373.912 143.928,373.146 144.139,372.779 144.396 M379.596 144.312 C 379.051 144.742,378.111 146.059,378.111 146.394 C 378.111 146.870,378.691 146.600,379.579 145.712 C 380.346 144.945,380.591 144.850,381.101 145.123 C 382.613 145.932,381.425 148.293,378.308 150.675 C 375.700 152.668,375.748 152.858,378.894 152.976 L 381.475 153.073 382.042 151.961 C 382.872 150.332,382.583 149.951,381.409 151.124 C 380.914 151.620,378.711 152.029,378.711 151.625 C 378.711 151.571,379.329 151.082,380.084 150.540 C 382.847 148.555,384.055 145.687,382.660 144.424 C 382.022 143.847,380.268 143.783,379.596 144.312 M385.898 145.101 C 384.698 146.363,383.808 148.511,383.808 150.148 C 383.808 153.939,387.743 153.950,389.629 150.164 C 391.930 145.546,389.112 141.722,385.898 145.101 M375.115 144.980 C 375.943 145.978,374.815 148.726,373.577 148.726 C 372.246 148.726,372.331 145.939,373.692 144.986 C 374.505 144.417,374.646 144.416,375.115 144.980 M389.145 146.201 C 389.269 147.888,388.202 150.606,387.028 151.594 L 386.085 152.388 385.546 151.723 C 384.872 150.891,384.875 150.716,385.599 148.382 C 386.662 144.959,388.951 143.551,389.145 146.201 M341.759 147.801 C 340.746 148.706,340.808 149.433,341.843 148.787 C 342.566 148.335,342.566 148.356,341.829 150.225 C 340.767 152.919,341.388 153.791,343.237 152.199 C 344.138 151.423,343.978 150.762,343.031 151.353 C 342.509 151.679,342.524 151.541,343.209 149.722 C 344.294 146.840,343.706 146.062,341.759 147.801 M345.618 147.548 C 344.612 148.339,344.593 148.850,345.577 148.603 C 345.990 148.499,346.327 148.461,346.327 148.518 C 346.327 148.575,345.990 149.452,345.577 150.467 C 344.680 152.676,344.660 152.924,345.387 152.924 C 345.773 152.924,346.105 152.505,346.464 151.566 C 346.994 150.179,348.676 148.126,349.283 148.126 C 349.491 148.126,349.334 148.886,348.873 150.111 C 347.764 153.057,347.960 153.490,349.940 152.466 C 350.962 151.937,351.191 150.968,350.221 151.276 L 349.617 151.467 350.221 149.935 C 351.371 147.016,350.549 145.936,348.492 147.666 L 347.613 148.406 347.755 147.666 C 347.939 146.703,346.774 146.638,345.618 147.548 M353.394 147.563 C 351.867 148.765,351.052 152.385,352.209 152.829 C 352.854 153.076,354.132 152.600,354.531 151.963 C 354.987 151.238,354.531 150.934,353.876 151.526 C 353.100 152.229,352.924 152.152,352.924 151.115 C 352.924 149.263,353.670 148.110,354.732 148.323 C 355.596 148.496,355.667 148.452,355.574 147.794 C 355.437 146.829,354.459 146.726,353.394 147.563 M358.109 147.287 C 356.529 148.050,355.086 151.466,355.920 152.471 C 356.650 153.351,359.520 152.499,359.520 151.403 C 359.520 150.967,358.871 151.076,358.281 151.611 C 357.582 152.243,356.750 151.926,356.876 151.076 C 356.938 150.652,357.308 150.312,357.937 150.100 C 359.391 149.611,360.120 148.852,360.120 147.829 C 360.120 146.838,359.426 146.651,358.109 147.287 M358.921 148.265 C 358.921 148.716,357.788 149.492,357.521 149.225 C 357.371 149.075,358.488 147.826,358.771 147.826 C 358.853 147.826,358.921 148.024,358.921 148.265 M21.395 149.014 C 21.072 149.304,19.233 149.925,18.696 149.925 C 18.473 149.925,18.291 149.621,18.290 149.250 C 18.290 148.619,18.397 148.582,19.970 148.680 C 20.894 148.738,21.535 148.888,21.395 149.014 M37.018 149.761 C 36.580 150.199,36.282 150.844,36.282 151.353 C 36.282 151.824,36.073 152.471,35.818 152.791 C 35.380 153.341,35.364 153.321,35.538 152.418 C 35.779 151.161,34.895 150.225,33.467 150.225 C 32.017 150.225,31.123 151.065,30.911 152.626 C 30.701 154.172,30.045 154.638,30.223 153.116 C 30.455 151.130,27.956 150.408,26.364 152.001 C 25.524 152.840,25.486 152.996,25.465 155.674 C 25.446 158.058,25.038 161.925,24.925 160.795 C 24.867 160.215,24.235 160.347,22.979 161.200 C 21.441 162.245,21.814 162.495,25.207 162.691 C 29.330 162.929,30.208 162.174,30.262 158.346 C 30.297 155.880,30.651 156.767,30.695 159.431 L 30.735 161.769 32.217 161.691 C 34.594 161.565,34.952 161.165,35.424 158.111 L 35.832 155.472 35.919 157.919 C 36.022 160.822,36.270 161.148,38.163 160.864 C 40.474 160.517,40.730 159.745,40.764 153.016 C 40.784 149.082,39.132 147.647,37.018 149.761 M43.600 168.291 C 43.483 168.497,43.184 168.902,42.936 169.190 C 42.336 169.889,43.586 169.929,45.183 169.261 C 46.555 168.688,46.576 168.719,45.986 170.448 C 45.619 171.526,45.172 172.112,44.188 172.806 C 42.870 173.734,42.560 174.205,43.253 174.222 C 43.460 174.227,43.358 174.382,43.028 174.566 C 42.140 175.062,42.140 175.062,42.706 175.687 C 43.370 176.421,42.723 176.908,40.074 177.668 L 38.319 178.171 38.521 179.787 C 38.888 182.721,39.102 182.609,33.149 182.609 L 27.958 182.609 28.388 180.331 C 29.056 176.797,28.888 175.862,27.588 175.862 C 26.425 175.862,26.416 175.886,25.872 180.060 L 25.637 181.859 24.481 181.954 C 23.065 182.070,23.091 181.476,24.531 180.830 C 25.790 180.266,25.739 179.967,24.363 179.853 C 23.049 179.744,22.689 178.699,23.527 177.421 C 23.935 176.798,23.942 176.647,23.576 176.343 C 23.343 176.149,23.066 175.536,22.962 174.981 C 22.728 173.735,22.073 173.420,21.650 174.350 C 21.477 174.729,20.906 175.528,20.381 176.126 C 19.843 176.739,19.500 177.404,19.595 177.651 C 19.715 177.965,19.469 178.144,18.727 178.283 C 17.545 178.505,17.439 178.801,18.283 179.523 C 18.999 180.137,18.375 181.109,17.265 181.109 C 16.917 181.109,16.129 181.380,15.513 181.710 L 14.393 182.310 14.393 181.177 C 14.393 180.324,14.685 179.656,15.572 178.475 C 16.757 176.898,17.991 174.103,17.991 172.997 C 17.991 172.520,18.133 172.438,18.706 172.582 C 19.147 172.693,19.888 172.523,20.643 172.138 C 21.487 171.707,22.448 171.511,23.751 171.505 C 24.932 171.499,25.855 171.331,26.219 171.055 C 26.551 170.804,27.454 170.613,28.318 170.611 C 29.152 170.609,30.568 170.413,31.463 170.174 C 32.372 169.933,33.632 169.815,34.316 169.909 C 35.255 170.038,35.806 169.922,36.669 169.413 C 37.601 168.862,38.064 168.781,39.362 168.937 C 40.642 169.091,41.094 169.015,41.829 168.523 C 42.845 167.842,43.937 167.699,43.600 168.291 M35.597 173.988 C 34.521 174.795,34.329 181.525,35.372 181.856 C 36.887 182.337,37.428 181.267,37.691 177.268 C 37.912 173.898,37.201 172.785,35.597 173.988 " stroke="none" fill="#000000" fill-rule="evenodd"></path></g></svg>