<svg width="50" height="20" viewBox="0 0 50 20" fill="none" xmlns="http://www.w3.org/2000/svg">
<rect width="50" height="20" fill="white"/>
<path fill-rule="evenodd" clip-rule="evenodd" d="M19 3C19 2.44772 19.4477 2 20 2H30C30.5523 2 31 2.44772 31 3C31 3.55228 30.5523 4 30 4H23C21.8954 4 21 4.89543 21 6V15H43.5C44.6046 15 45.5 14.1046 45.5 13V7.5C45.5 6.94772 45.9477 6.5 46.5 6.5C47.0523 6.5 47.5 6.94772 47.5 7.5V16C47.5 16.5523 47.0523 17 46.5 17H20C19.4477 17 19 16.5523 19 16V3Z" fill="#8B55FF"/>
<path d="M29.1348 11.24C29.1348 10.68 29.2588 10.184 29.5068 9.752C29.7628 9.32 30.1068 8.98 30.5388 8.732C30.9708 8.484 31.4548 8.36 31.9908 8.36C32.5348 8.36 33.0188 8.484 33.4428 8.732C33.8748 8.98 34.2148 9.32 34.4628 9.752C34.7188 10.184 34.8468 10.68 34.8468 11.24C34.8468 11.792 34.7188 12.288 34.4628 12.728C34.2148 13.16 33.8748 13.5 33.4428 13.748C33.0188 13.996 32.5348 14.12 31.9908 14.12C31.4548 14.12 30.9708 13.996 30.5388 13.748C30.1068 13.5 29.7628 13.16 29.5068 12.728C29.2588 12.288 29.1348 11.792 29.1348 11.24ZM30.1068 11.24C30.1068 11.624 30.1868 11.964 30.3468 12.26C30.5148 12.556 30.7388 12.792 31.0188 12.968C31.3068 13.136 31.6308 13.22 31.9908 13.22C32.3508 13.22 32.6708 13.136 32.9508 12.968C33.2388 12.792 33.4628 12.556 33.6228 12.26C33.7908 11.964 33.8748 11.624 33.8748 11.24C33.8748 10.856 33.7908 10.516 33.6228 10.22C33.4628 9.916 33.2388 9.68 32.9508 9.512C32.6708 9.344 32.3508 9.26 31.9908 9.26C31.6308 9.26 31.3068 9.344 31.0188 9.512C30.7388 9.68 30.5148 9.916 30.3468 10.22C30.1868 10.516 30.1068 10.856 30.1068 11.24Z" fill="black"/>
<path d="M38.5684 11.24C38.5684 10.68 38.6924 10.184 38.9404 9.752C39.1964 9.32 39.5404 8.98 39.9724 8.732C40.4044 8.484 40.8884 8.36 41.4244 8.36C41.9684 8.36 42.4524 8.484 42.8764 8.732C43.3084 8.98 43.6484 9.32 43.8964 9.752C44.1524 10.184 44.2804 10.68 44.2804 11.24C44.2804 11.792 44.1524 12.288 43.8964 12.728C43.6484 13.16 43.3084 13.5 42.8764 13.748C42.4524 13.996 41.9684 14.12 41.4244 14.12C40.8884 14.12 40.4044 13.996 39.9724 13.748C39.5404 13.5 39.1964 13.16 38.9404 12.728C38.6924 12.288 38.5684 11.792 38.5684 11.24ZM39.5404 11.24C39.5404 11.624 39.6204 11.964 39.7804 12.26C39.9484 12.556 40.1724 12.792 40.4524 12.968C40.7404 13.136 41.0644 13.22 41.4244 13.22C41.7844 13.22 42.1044 13.136 42.3844 12.968C42.6724 12.792 42.8964 12.556 43.0564 12.26C43.2244 11.964 43.3084 11.624 43.3084 11.24C43.3084 10.856 43.2244 10.516 43.0564 10.22C42.8964 9.916 42.6724 9.68 42.3844 9.512C42.1044 9.344 41.7844 9.26 41.4244 9.26C41.0644 9.26 40.7404 9.344 40.4524 9.512C40.1724 9.68 39.9484 9.916 39.7804 10.22C39.6204 10.516 39.5404 10.856 39.5404 11.24Z" fill="black"/>
<path fill-rule="evenodd" clip-rule="evenodd" d="M6.53705 11.084H5.916V9.512H6.804C7.076 9.512 7.308 9.472 7.5 9.392C7.7 9.304 7.852 9.18 7.956 9.02C8.06 8.852 8.112 8.652 8.112 8.42C8.112 8.188 8.06 7.992 7.956 7.832C7.852 7.664 7.7 7.536 7.5 7.448C7.308 7.36 7.076 7.316 6.804 7.316H5.916V9.512V9.512C5.49847 9.512 5.16 9.85047 5.16 10.268V10.328C5.16 10.7455 5.49847 11.084 5.916 11.084V11.084V12.986C5.916 13.546 5.46202 14 4.902 14V14C4.34198 14 3.888 13.546 3.888 12.986V5.6H5.16H5.916H6.948C7.668 5.6 8.268 5.716 8.748 5.948C9.228 6.18 9.592 6.504 9.84 6.92C10.088 7.328 10.212 7.804 10.212 8.348C10.212 8.884 10.088 9.36 9.84 9.776C9.592 10.184 9.228 10.504 8.748 10.736C8.67695 10.7703 8.60327 10.8021 8.52697 10.8314L9.67104 12.4874C10.113 13.1271 9.65509 14 8.87757 14V14C8.5434 14 8.23304 13.827 8.0573 13.5428L6.53705 11.084Z" fill="black"/>
<path d="M5.916 9.512C5.49847 9.512 5.16 9.85047 5.16 10.268V10.328C5.16 10.7455 5.49847 11.084 5.916 11.084V11.084V9.512V9.512Z" fill="black"/>
<path fill-rule="evenodd" clip-rule="evenodd" d="M12.6175 13.772C13.0895 14.004 13.6455 14.12 14.2855 14.12C14.9895 14.12 15.5855 13.984 16.0735 13.712C16.2719 13.6032 16.4536 13.4727 16.6187 13.3204C17.0102 12.9593 16.7475 12.3653 16.2301 12.2388V12.2388C15.8748 12.152 15.5205 12.3399 15.2191 12.5472C15.1741 12.5782 15.1269 12.6065 15.0775 12.632C14.8535 12.752 14.5815 12.812 14.2615 12.812C13.9815 12.812 13.7455 12.752 13.5535 12.632C13.3615 12.504 13.2175 12.32 13.1215 12.08C13.0669 11.9435 13.0279 11.7915 13.0043 11.624H17.0075C17.1294 11.624 17.2375 11.542 17.2375 11.42V11.42V11.156C17.2375 10.564 17.1215 10.06 16.8895 9.644C16.6575 9.228 16.3215 8.912 15.8815 8.696C15.4415 8.472 14.9015 8.36 14.2615 8.36C13.6215 8.36 13.0655 8.476 12.5935 8.708C12.1295 8.94 11.7735 9.272 11.5255 9.704C11.2775 10.136 11.1535 10.648 11.1535 11.24C11.1535 11.824 11.2815 12.332 11.5375 12.764C11.7935 13.196 12.1535 13.532 12.6175 13.772ZM13.0364 10.616H15.2889C15.2754 10.4309 15.233 10.2669 15.1615 10.124C15.0735 9.948 14.9495 9.812 14.7895 9.716C14.6295 9.62 14.4415 9.572 14.2255 9.572C13.9535 9.572 13.7255 9.632 13.5415 9.752C13.3575 9.872 13.2175 10.056 13.1215 10.304C13.087 10.3982 13.0586 10.5022 13.0364 10.616ZM13.0364 10.616H12.6775C12.3992 10.616 12.1735 10.8416 12.1735 11.12V11.12C12.1735 11.3984 12.3992 11.624 12.6775 11.624H13.0043C13.0033 11.6166 13.0023 11.6092 13.0013 11.6017C12.9855 11.4811 12.9775 11.3525 12.9775 11.216C12.9824 10.9924 13.002 10.7924 13.0364 10.616Z" fill="black"/>
<path d="M12.6775 10.616C12.3992 10.616 12.1735 10.8416 12.1735 11.12V11.12C12.1735 11.3984 12.3992 11.624 12.6775 11.624H13.0043L13.0013 11.6017C12.9855 11.4811 12.9775 11.3525 12.9775 11.216C12.9824 10.9924 13.002 10.7924 13.0364 10.616H12.6775Z" fill="black"/>
<path fill-rule="evenodd" clip-rule="evenodd" d="M26.0971 10.546L25.7408 10.0543C25.6524 9.93226 25.5108 9.86 25.36 9.86V9.86C24.9802 9.86 24.7571 10.287 24.974 10.5988L25.0026 10.64H23.98V13.49C23.98 13.7717 23.7517 14 23.47 14V14C23.1883 14 22.96 13.7717 22.96 13.49V5.6H23.524H23.98H25.24C25.784 5.6 26.268 5.704 26.692 5.912C27.124 6.112 27.464 6.4 27.712 6.776C27.968 7.152 28.096 7.6 28.096 8.12C28.096 8.632 27.968 9.08 27.712 9.464C27.464 9.84 27.124 10.132 26.692 10.34C26.5053 10.4281 26.307 10.4967 26.0971 10.546ZM25.24 10.64H25.0026L27.1885 13.7823C27.2834 13.9187 27.4391 14 27.6052 14V14C28.0197 14 28.2595 13.5301 28.0163 13.1945L26.0971 10.546C25.8302 10.6087 25.5445 10.64 25.24 10.64ZM23.98 6.5V9.74H25.24C25.6 9.74 25.916 9.676 26.188 9.548C26.468 9.42 26.684 9.236 26.836 8.996C26.996 8.756 27.076 8.464 27.076 8.12C27.076 7.776 26.996 7.484 26.836 7.244C26.684 7.004 26.468 6.82 26.188 6.692C25.916 6.564 25.6 6.5 25.24 6.5H23.98Z" fill="black"/>
<path d="M25.7408 10.0543C25.6524 9.93226 25.5108 9.86 25.36 9.86V9.86C24.9802 9.86 24.7571 10.287 24.974 10.5988L25.0026 10.64H25.24C25.5445 10.64 25.8302 10.6087 26.0971 10.546L25.7408 10.0543Z" fill="black"/>
<path fill-rule="evenodd" clip-rule="evenodd" d="M36.2256 8.48H35.7756C35.5271 8.48 35.3256 8.68147 35.3256 8.93V8.93C35.3256 9.17853 35.5271 9.38 35.7756 9.38H36.2256V13.52C36.2256 13.7851 36.4405 14 36.7056 14V14C36.9707 14 37.1856 13.7851 37.1856 13.52V9.38H37.6356C37.8842 9.38 38.0856 9.17853 38.0856 8.93V8.93C38.0856 8.68147 37.8842 8.48 37.6356 8.48H37.1856V7.04C37.1856 6.7749 36.9707 6.56 36.7056 6.56V6.56C36.4405 6.56 36.2256 6.7749 36.2256 7.04V8.48ZM36.2256 8.48V9.38H37.1856V8.48H36.2256Z" fill="black"/>
<path d="M36.2256 8.48V9.38H37.1856V8.48H36.2256Z" fill="black"/>
</svg>
