<svg width="20" height="20" viewBox="0 0 20 20" fill="none" xmlns="http://www.w3.org/2000/svg">
<style>
    .purple {
        stroke: #8B55FF;
    }
    .fill {
        fill: black;
    }
    @media (prefers-color-scheme: dark) {
        .purple { stroke: #FC3858; }
        .fill { fill: white; }
    }
</style>
<path d="M13 3H5C3.89543 3 3 3.89543 3 5V16H15.5C16.6046 16 17.5 15.1046 17.5 14V7.5" class="purple" stroke-width="2" stroke-linecap="round" stroke-linejoin="round"/>
<path d="M13.4046 13.1C12.8713 13.1 12.4079 13.0033 12.0146 12.81C11.6279 12.61 11.3279 12.33 11.1146 11.97C10.9013 11.61 10.7946 11.1867 10.7946 10.7C10.7946 10.2067 10.8979 9.78 11.1046 9.42C11.3113 9.06 11.6079 8.78333 11.9946 8.59C12.3879 8.39667 12.8513 8.3 13.3846 8.3C13.9179 8.3 14.3679 8.39333 14.7346 8.58C15.1013 8.76 15.3813 9.02333 15.5746 9.37C15.7679 9.71667 15.8646 10.1367 15.8646 10.63C15.8646 10.7033 15.8646 10.7767 15.8646 10.85V10.85C15.8646 10.9516 15.7745 11.02 15.6729 11.02H11.6446V10.18H14.4846L14.1246 10.64C14.1579 10.5933 14.1846 10.5367 14.2046 10.47C14.2313 10.3967 14.2446 10.3367 14.2446 10.29C14.2446 10.09 14.2079 9.91667 14.1346 9.77C14.0613 9.62333 13.9579 9.51 13.8246 9.43C13.6913 9.35 13.5346 9.31 13.3546 9.31C13.1279 9.31 12.9379 9.36 12.7846 9.46C12.6313 9.56 12.5146 9.71333 12.4346 9.92C12.3613 10.12 12.3213 10.3733 12.3146 10.68C12.3146 10.96 12.3546 11.2 12.4346 11.4C12.5146 11.6 12.6346 11.7533 12.7946 11.86C12.9546 11.96 13.1513 12.01 13.3846 12.01C13.6513 12.01 13.8779 11.96 14.0646 11.86C14.1058 11.8387 14.1451 11.8152 14.1826 11.7894C14.4337 11.6166 14.729 11.46 15.0251 11.5323V11.5323C15.4562 11.6377 15.6752 12.1327 15.349 12.4337C15.2114 12.5606 15.0599 12.6693 14.8946 12.76C14.4879 12.9867 13.9913 13.1 13.4046 13.1Z" class="fill"/>
<path d="M6.49001 9.83H8.24001L9.5592 11.7395C9.92749 12.2726 9.54591 13 8.89798 13V13C8.6195 13 8.36087 12.8558 8.21442 12.619L6.49001 9.83ZM4.74001 6H6.43001V12.155C6.43001 12.6217 6.05169 13 5.58501 13V13C5.11833 13 4.74001 12.6217 4.74001 12.155V6ZM5.80001 7.43V6H7.29001C7.89001 6 8.39001 6.09667 8.79001 6.29C9.19001 6.48333 9.49334 6.75333 9.70001 7.1C9.90667 7.44 10.01 7.83667 10.01 8.29C10.01 8.73667 9.90667 9.13333 9.70001 9.48C9.49334 9.82 9.19001 10.0867 8.79001 10.28C8.39001 10.4733 7.89001 10.57 7.29001 10.57H5.80001V9.26H7.17001C7.39667 9.26 7.59001 9.22667 7.75001 9.16C7.91667 9.08667 8.04334 8.98333 8.13001 8.85C8.21667 8.71 8.26001 8.54333 8.26001 8.35C8.26001 8.15667 8.21667 7.99333 8.13001 7.86C8.04334 7.72 7.91667 7.61333 7.75001 7.54C7.59001 7.46667 7.39667 7.43 7.17001 7.43H5.80001Z" class="fill"/>
</svg>
